<svg width="240" height="239" viewBox="0 0 240 239" fill="none" xmlns="http://www.w3.org/2000/svg">
<path fill-rule="evenodd" clip-rule="evenodd" d="M162.989 53.5729C149.95 50.9792 136.434 52.3104 124.152 57.398C111.869 62.4856 101.371 71.1012 93.9846 82.1553C86.5986 93.2094 82.6562 106.205 82.6562 119.5C82.6562 123.625 79.3124 126.969 75.1875 126.969C71.0626 126.969 67.7188 123.625 67.7188 119.5C67.7188 111.918 68.7679 104.415 70.8044 97.1956C69.779 97.1274 68.7508 97.0934 67.7216 97.0938C55.8365 97.0938 44.4355 101.815 36.0315 110.219C27.6276 118.623 22.9062 130.021 22.9062 141.906C22.9062 153.791 27.6276 165.19 36.0315 173.593C44.4355 181.997 55.8337 186.719 67.7188 186.719H149.875C163.17 186.719 176.166 182.776 187.22 175.39C198.274 168.004 206.889 157.506 211.977 145.224C217.065 132.941 218.396 119.425 215.802 106.386C213.209 93.3472 206.807 81.3699 197.406 71.9692C188.005 62.5685 176.028 56.1665 162.989 53.5729ZM76.3861 82.7708C77.9183 79.705 79.6464 76.7272 81.5646 73.8565C90.592 60.3459 103.423 49.8158 118.435 43.5976C133.447 37.3793 149.966 35.7524 165.903 38.9224C181.84 42.0924 196.478 49.917 207.968 61.4068C219.458 72.8965 227.283 87.5354 230.453 103.472C233.623 119.409 231.996 135.928 225.777 150.94C219.559 165.952 209.029 178.783 195.519 187.81C182.008 196.838 166.124 201.656 149.875 201.656H67.7188C51.8721 201.656 36.6744 195.361 25.4691 184.156C14.2638 172.951 7.96875 157.753 7.96875 141.906C7.96875 126.06 14.2638 110.862 25.4691 99.6567C36.6738 88.452 51.8703 82.157 67.7159 82.1563M76.3861 82.7708C73.5178 82.3611 70.6186 82.1553 67.7159 82.1563L76.3861 82.7708Z" fill="#0C3825"/>
<path d="M124.152 57.398C136.434 52.3104 149.95 50.9792 162.989 53.5729C176.028 56.1665 188.005 62.5685 197.406 71.9692C206.807 81.3699 213.209 93.3472 215.802 106.386C218.396 119.425 217.065 132.941 211.977 145.224C206.889 157.506 198.274 168.004 187.22 175.39C176.166 182.776 163.17 186.719 149.875 186.719H67.7188C55.8337 186.719 44.4355 181.997 36.0315 173.593C27.6276 165.19 22.9062 153.791 22.9062 141.906C22.9062 130.021 27.6276 118.623 36.0315 110.219C44.4355 101.815 55.8365 97.0938 67.7216 97.0938C68.7508 97.0934 69.779 97.1274 70.8044 97.1956C68.7679 104.415 67.7188 111.918 67.7188 119.5C67.7188 123.625 71.0626 126.969 75.1875 126.969C79.3124 126.969 82.6562 123.625 82.6562 119.5C82.6562 106.205 86.5986 93.2094 93.9846 82.1553C101.371 71.1012 111.869 62.4856 124.152 57.398Z" fill="#0C3825"/>
<path fill-rule="evenodd" clip-rule="evenodd" d="M118.695 101.541C119.416 100.82 120.584 100.82 121.305 101.541L143.459 123.695C143.987 124.223 144.145 125.017 143.859 125.706C143.574 126.396 142.9 126.846 142.154 126.846H132.923V145.308C132.923 146.287 132.534 147.226 131.842 147.919C131.149 148.611 130.21 149 129.231 149H110.769C109.79 149 108.851 148.611 108.158 147.919C107.466 147.226 107.077 146.287 107.077 145.308V126.846H97.8462C97.0995 126.846 96.4263 126.396 96.1406 125.706C95.8548 125.017 96.0128 124.223 96.5408 123.695L118.695 101.541ZM102.303 123.154H108.923C109.943 123.154 110.769 123.98 110.769 125V145.308H129.231V125C129.231 123.98 130.057 123.154 131.077 123.154H137.697L120 105.457L102.303 123.154Z" fill="white"/>
<path d="M108.923 123.154H102.303L120 105.457L137.697 123.154H131.077C130.057 123.154 129.231 123.98 129.231 125V145.308H110.769V125C110.769 123.98 109.943 123.154 108.923 123.154Z" fill="white"/>
</svg>
