<svg width="1481" height="499" viewBox="0 0 1481 499" fill="none" xmlns="http://www.w3.org/2000/svg">
<g id="Group 13">
<path id="Vector 2" d="M168.864 489.216H128.01H126.648V499H340.452V487.818H302.322L87.1558 162.14L227.422 12.5798H228.784H280.533H291.427L299.598 13.9776L309.131 15.3753L320.025 18.1709L330.92 20.9664L340.452 26.5574L348.623 32.1485L354.07 37.7395L358.156 41.9328L360.879 46.126L364.965 51.7171L367.688 55.9104L370.412 61.5014L371.774 67.0924L374.497 75.479L375.859 81.07L377.221 88.0588L378.583 97.8431V146.765L377.221 153.753V155.151V156.549L375.859 163.538L373.136 173.322L370.412 181.709L366.327 191.493L360.879 201.277L355.432 209.664L347.261 218.05L337.729 225.039L328.196 232.028L315.94 237.619L302.322 241.812L290.065 244.608L278.613 246.098H261.467V259.983H264.191H283.256H298.236L310.492 261.381L320.025 262.779L328.196 265.574L336.367 269.767L344.538 275.359L351.347 282.347L355.432 289.336L359.518 297.723L363.603 308.905L364.965 317.291L369.05 343.849L370.412 356.429V396.964L371.774 415.134L374.497 434.703L381.307 455.669L389.477 469.647L403.095 483.625L423.523 493.409L445.312 497.602H471.186H479.357L486.166 496.204L492.975 493.409L501.146 490.613L509.317 486.42L517.487 480.829L524.296 473.84L531.106 466.852L536.553 457.067L540.638 447.283L542 441.692V440.294V438.896L540.638 437.499L535.191 436.101L533.829 437.499L529.744 445.885L520.211 454.272L512.04 457.067L503.869 455.669L495.698 450.078L490.251 443.09L487.528 430.51L486.166 424.919L484.804 419.328V413.737L483.442 405.188V394.168L482.08 362.02V355.031L481.778 349.3L480.719 342.451L479.04 336.168L477.995 328.473L476.633 322.882L473.91 315.894L471.186 308.905L467.1 300.518L461.653 292.132L456.206 285.143L452.121 280.95L445.312 275.359L439.864 271.165L433.055 266.972L422.161 262.779L407.181 257.188L392.201 254.392L375.859 251.597V250.199H360.879L371.774 248.801L386.754 246.006L396.286 243.21L405.819 240.415L422.161 233.426L434.417 226.437L445.312 219.448L454.844 212.459L463.015 204.073L468.462 197.084L476.633 184.504L484.804 166.333L488.889 149.56L490.251 134.185V114.616L487.528 100.639L483.442 88.0588L477.995 76.8767L469.824 62.8992L457.568 48.9216L435.779 30.7507L403.095 15.3753L374.497 6.9888L320.025 0H171.588V11.1821H213.804L212.442 12.5798L0 233.426L168.864 489.216Z" fill="#0C3825"/>
<path id="Karishma by Rashmi" d="M622.32 186H615.92V74H622.32V141.68L686.96 74H695.12L649.68 121.84L698.16 186H690.64L645.36 126.32L622.32 150.48V186ZM745.891 186.96C727.171 186.96 714.851 178.48 714.851 163.76C714.851 149.2 727.171 140.56 748.291 140.56H776.771V131.6C776.771 118.64 766.051 110.96 747.971 110.96C735.651 110.96 728.451 114.48 722.531 120.56L718.371 116.24C725.091 109.2 733.891 105.04 747.971 105.04C769.731 105.04 782.851 114.96 782.851 131.6V186H776.771V174.96C770.691 182.32 759.651 186.96 745.891 186.96ZM748.291 146.16C731.171 146.16 720.931 152.88 720.931 163.6C720.931 174.64 731.331 181.04 746.691 181.04C764.611 181.04 776.771 172.4 776.771 160.72V146.16H748.291ZM821.494 186H815.414V106H821.494V122.64C828.534 111.92 842.134 105.04 858.614 105.04V110.96C837.174 110.96 821.494 123.44 821.494 140.56V186ZM883.695 186V106H889.775V186H883.695ZM880.495 78C880.495 74.32 883.215 71.76 886.735 71.76C890.415 71.76 892.975 74.32 892.975 78C892.975 81.68 890.415 84.24 886.735 84.24C883.215 84.24 880.495 81.68 880.495 78ZM915.081 175.92L919.401 171.6C924.681 177.52 933.641 181.04 945.001 181.04C959.721 181.04 969.321 175.12 969.321 165.52C969.321 143.28 917.001 153.04 917.001 125.36C917.001 112.88 927.721 105.04 944.361 105.04C956.361 105.04 966.441 109.04 973.001 116.08L968.681 120.4C963.241 114.48 954.761 110.96 944.521 110.96C931.561 110.96 922.921 116.56 922.921 125.2C922.921 146.64 975.241 137.36 975.241 165.52C975.241 178.8 963.561 186.96 945.161 186.96C932.041 186.96 921.481 182.8 915.081 175.92ZM1007.43 186H1001.35V69.2H1007.43V121.68C1013.83 111.44 1025.51 105.04 1039.59 105.04C1059.59 105.04 1073.99 118.16 1073.99 136.24V186H1067.91V136.24C1067.91 121.52 1055.91 110.96 1039.11 110.96C1020.87 110.96 1007.43 123.44 1007.43 140.56V186ZM1112.74 186H1106.66V106H1112.74V120.72C1118.66 111.12 1129.06 105.04 1141.38 105.04C1155.14 105.04 1166.18 112.4 1170.34 123.44C1175.94 112.24 1186.98 105.04 1200.58 105.04C1218.34 105.04 1231.3 117.04 1231.3 133.36V186H1225.22V133.36C1225.22 120.4 1214.66 110.96 1200.42 110.96C1183.94 110.96 1172.1 123.44 1172.1 140.56V186H1166.02V133.36C1166.02 120.4 1155.46 110.96 1141.06 110.96C1124.58 110.96 1112.74 123.44 1112.74 140.56V186ZM1290.27 186.96C1271.55 186.96 1259.23 178.48 1259.23 163.76C1259.23 149.2 1271.55 140.56 1292.67 140.56H1321.15V131.6C1321.15 118.64 1310.43 110.96 1292.35 110.96C1280.03 110.96 1272.83 114.48 1266.91 120.56L1262.75 116.24C1269.47 109.2 1278.27 105.04 1292.35 105.04C1314.11 105.04 1327.23 114.96 1327.23 131.6V186H1321.15V174.96C1315.07 182.32 1304.03 186.96 1290.27 186.96ZM1292.67 146.16C1275.55 146.16 1265.31 152.88 1265.31 163.6C1265.31 174.64 1275.71 181.04 1291.07 181.04C1308.99 181.04 1321.15 172.4 1321.15 160.72V146.16H1292.67ZM614.32 328.2H620.4V383.56C626.96 371.56 639.12 364.04 654 364.04C676.56 364.04 692.88 381.32 692.88 405C692.88 428.68 676.56 445.96 654 445.96C639.12 445.96 626.96 438.44 620.4 426.44V445H614.32V328.2ZM653.68 369.96C634.48 369.96 620.4 384.68 620.4 405C620.4 425.16 634.48 440.04 653.68 440.04C672.88 440.04 686.8 425.16 686.8 405C686.8 384.68 672.88 369.96 653.68 369.96ZM707.35 365H713.59L747.99 441.48L780.47 365H786.71L744.31 464.84C739.67 476.04 731.51 482.76 722.39 482.76C719.51 482.76 715.99 481.96 713.59 481V475.4C716.15 476.36 719.67 477 722.23 477C729.11 477 734.87 472.04 738.71 463.24L744.79 448.84L707.35 365ZM857.483 445V333H904.203C923.243 333 937.163 346.12 937.163 364.04C937.163 380.36 925.803 392.68 909.323 394.76L941.003 445H933.963L902.443 395.08H863.883V445H857.483ZM904.203 338.92H863.883V389.16H904.203C919.562 389.16 930.763 378.44 930.763 364.04C930.763 349.48 919.562 338.92 904.203 338.92ZM991.36 445.96C972.64 445.96 960.32 437.48 960.32 422.76C960.32 408.2 972.64 399.56 993.76 399.56H1022.24V390.6C1022.24 377.64 1011.52 369.96 993.44 369.96C981.12 369.96 973.92 373.48 968 379.56L963.84 375.24C970.56 368.2 979.36 364.04 993.44 364.04C1015.2 364.04 1028.32 373.96 1028.32 390.6V445H1022.24V433.96C1016.16 441.32 1005.12 445.96 991.36 445.96ZM993.76 405.16C976.64 405.16 966.4 411.88 966.4 422.6C966.4 433.64 976.8 440.04 992.16 440.04C1010.08 440.04 1022.24 431.4 1022.24 419.72V405.16H993.76ZM1053.21 434.92L1057.53 430.6C1062.81 436.52 1071.77 440.04 1083.13 440.04C1097.85 440.04 1107.45 434.12 1107.45 424.52C1107.45 402.28 1055.13 412.04 1055.13 384.36C1055.13 371.88 1065.85 364.04 1082.49 364.04C1094.49 364.04 1104.57 368.04 1111.13 375.08L1106.81 379.4C1101.37 373.48 1092.89 369.96 1082.65 369.96C1069.69 369.96 1061.05 375.56 1061.05 384.2C1061.05 405.64 1113.37 396.36 1113.37 424.52C1113.37 437.8 1101.69 445.96 1083.29 445.96C1070.17 445.96 1059.61 441.8 1053.21 434.92ZM1145.56 445H1139.48V328.2H1145.56V380.68C1151.96 370.44 1163.64 364.04 1177.72 364.04C1197.72 364.04 1212.12 377.16 1212.12 395.24V445H1206.04V395.24C1206.04 380.52 1194.04 369.96 1177.24 369.96C1159 369.96 1145.56 382.44 1145.56 399.56V445ZM1250.87 445H1244.79V365H1250.87V379.72C1256.79 370.12 1267.19 364.04 1279.51 364.04C1293.27 364.04 1304.31 371.4 1308.47 382.44C1314.07 371.24 1325.11 364.04 1338.71 364.04C1356.47 364.04 1369.43 376.04 1369.43 392.36V445H1363.35V392.36C1363.35 379.4 1352.79 369.96 1338.55 369.96C1322.07 369.96 1310.23 382.44 1310.23 399.56V445H1304.15V392.36C1304.15 379.4 1293.59 369.96 1279.19 369.96C1262.71 369.96 1250.87 382.44 1250.87 399.56V445ZM1402.29 445V365H1408.37V445H1402.29ZM1399.09 337C1399.09 333.32 1401.81 330.76 1405.33 330.76C1409.01 330.76 1411.57 333.32 1411.57 337C1411.57 340.68 1409.01 343.24 1405.33 343.24C1401.81 343.24 1399.09 340.68 1399.09 337Z" fill="#0C3825"/>
</g>
</svg>
